<?xml version="1.0" encoding="UTF-8" standalone="no"?>
<!DOCTYPE svg PUBLIC "-//W3C//DTD SVG 1.1//EN" "http://www.w3.org/Graphics/SVG/1.1/DTD/svg11.dtd">
<svg width="100%" height="100%" viewBox="0 0 425 414" version="1.1" xmlns="http://www.w3.org/2000/svg" xmlns:xlink="http://www.w3.org/1999/xlink" xml:space="preserve" xmlns:serif="http://www.serif.com/" style="fill-rule:evenodd;clip-rule:evenodd;stroke-linejoin:round;stroke-miterlimit:2;">
    <style type="text/css">
        .gitHubIcon{fill:#181717;}
    </style>
    <path class="gitHubIcon iconSvgFill" d="M212.083,0c-117.109,0 -212.083,94.961 -212.083,212.123c0,93.697 60.768,173.203 145.052,201.25c10.612,1.94 14.479,-4.61 14.479,-10.222c0,-5.039 -0.182,-18.372 -0.286,-36.081c-58.998,12.826 -71.446,-28.424 -71.446,-28.424c-9.648,-24.505 -23.554,-31.029 -23.554,-31.029c-19.258,-13.164 1.458,-12.89 1.458,-12.89c21.289,1.497 32.487,21.849 32.487,21.849c18.919,32.422 49.648,23.06 61.732,17.63c1.927,-13.711 7.409,-23.06 13.463,-28.359c-47.096,-5.352 -96.614,-23.555 -96.614,-104.831c-0,-23.151 8.268,-42.083 21.836,-56.914c-2.188,-5.365 -9.466,-26.927 2.083,-56.133c-0,-0 17.799,-5.703 58.32,21.745c16.914,-4.701 35.066,-7.058 53.099,-7.136c18.021,0.078 36.159,2.435 53.099,7.136c40.495,-27.448 58.268,-21.745 58.268,-21.745c11.576,29.206 4.297,50.768 2.123,56.133c13.594,14.831 21.797,33.763 21.797,56.914c-0,81.484 -49.597,99.414 -96.836,104.661c7.604,6.55 14.388,19.493 14.388,39.284c-0,28.36 -0.261,51.237 -0.261,58.19c0,5.664 3.829,12.266 14.584,10.196c84.218,-28.1 144.935,-107.553 144.935,-201.224c-0,-117.162 -94.974,-212.123 -212.123,-212.123Z" />
</svg>