<?xml version="1.0" encoding="UTF-8" standalone="no"?>
<!DOCTYPE svg PUBLIC "-//W3C//DTD SVG 1.1//EN" "http://www.w3.org/Graphics/SVG/1.1/DTD/svg11.dtd">
<svg width="100%" height="100%" viewBox="0 0 100 100" version="1.1" xmlns="http://www.w3.org/2000/svg" xmlns:xlink="http://www.w3.org/1999/xlink" xml:space="preserve" xmlns:serif="http://www.serif.com/" style="fill-rule:evenodd;clip-rule:evenodd;stroke-linecap:square;stroke-linejoin:round;stroke-miterlimit:1.5;">
    <style type="text/css">
        .hashSvgLine {fill:none;stroke:#999999;stroke-width:.75px;}
    </style>
    <g id="direction2" transform="matrix(6.12323e-17,1,-1,6.12323e-17,100,-7.10543e-15)">
        <g transform="matrix(1,0,0,1,0,-100)">
            <path d="M0,197.5L2.5,200" class="hashSvgLine" />
        </g>
        <g transform="matrix(1,0,0,1,5,-102)">
            <path d="M-5,194.5L2.5,202" class="hashSvgLine" />
        </g>
        <g transform="matrix(1,0,0,1,9,-102)">
            <path d="M-9,189.5L3.5,202" class="hashSvgLine" />
        </g>
        <g transform="matrix(1,0,0,1,13,-102)">
            <path d="M-13,184.5L4.5,202" class="hashSvgLine" />
        </g>
        <g transform="matrix(1,0,0,1,17,-102)">
            <path d="M-17,179.5L5.5,202" class="hashSvgLine" />
        </g>
        <g transform="matrix(1,0,0,1,21,-102)">
            <path d="M-21,174.5L6.5,202" class="hashSvgLine" />
        </g>
        <g transform="matrix(1,0,0,1,25,-102)">
            <path d="M-25,169.5L7.5,202" class="hashSvgLine" />
        </g>
        <g transform="matrix(1,0,0,1,29,-102)">
            <path d="M-29,164.5L8.5,202" class="hashSvgLine" />
        </g>
        <g transform="matrix(1,0,0,1,33,-102)">
            <path d="M-33,159.5L9.5,202" class="hashSvgLine" />
        </g>
        <g transform="matrix(1,0,0,1,37,-102)">
            <path d="M-37,154.5L10.5,202" class="hashSvgLine" />
        </g>
        <g transform="matrix(1,0,0,1,41,-102)">
            <path d="M-41,149.5L11.5,202" class="hashSvgLine" />
        </g>
        <g transform="matrix(1,0,0,1,45,-102)">
            <path d="M-45,144.5L12.5,202" class="hashSvgLine" />
        </g>
        <g transform="matrix(1,0,0,1,49,-102)">
            <path d="M-49,139.5L13.5,202" class="hashSvgLine" />
        </g>
        <g transform="matrix(1,0,0,1,53,-102)">
            <path d="M-53,134.5L14.5,202" class="hashSvgLine" />
        </g>
        <g transform="matrix(1,0,0,1,57,-102)">
            <path d="M-57,129.5L15.5,202" class="hashSvgLine" />
        </g>
        <g transform="matrix(1,0,0,1,61,-102)">
            <path d="M-61,124.5L16.5,202" class="hashSvgLine" />
        </g>
        <g transform="matrix(1,0,0,1,65,-102)">
            <path d="M-65,119.5L17.5,202" class="hashSvgLine" />
        </g>
        <g transform="matrix(1,0,0,1,69,-102)">
            <path d="M-69,114.5L18.5,202" class="hashSvgLine" />
        </g>
        <g transform="matrix(1,0,0,1,73,-102)">
            <path d="M-73,109.5L19.5,202" class="hashSvgLine" />
        </g>
        <g transform="matrix(1,0,0,1,77,-102)">
            <path d="M-77,104.5L20.5,202" class="hashSvgLine" />
        </g>
        <g transform="matrix(-1,-1.22465e-16,1.22465e-16,-1,100,200)">
            <path d="M0,197.5L2.5,200" class="hashSvgLine" />
        </g>
        <g transform="matrix(-1,-1.22465e-16,1.22465e-16,-1,95,202)">
            <path d="M-5,194.5L2.5,202" class="hashSvgLine" />
        </g>
        <g transform="matrix(-1,-1.22465e-16,1.22465e-16,-1,91,202)">
            <path d="M-9,189.5L3.5,202" class="hashSvgLine" />
        </g>
        <g transform="matrix(-1,-1.22465e-16,1.22465e-16,-1,87,202)">
            <path d="M-13,184.5L4.5,202" class="hashSvgLine" />
        </g>
        <g transform="matrix(-1,-1.22465e-16,1.22465e-16,-1,83,202)">
            <path d="M-17,179.5L5.5,202" class="hashSvgLine" />
        </g>
        <g transform="matrix(-1,-1.22465e-16,1.22465e-16,-1,79,202)">
            <path d="M-21,174.5L6.5,202" class="hashSvgLine" />
        </g>
        <g transform="matrix(-1,-1.22465e-16,1.22465e-16,-1,75,202)">
            <path d="M-25,169.5L7.5,202" class="hashSvgLine" />
        </g>
        <g transform="matrix(-1,-1.22465e-16,1.22465e-16,-1,71,202)">
            <path d="M-29,164.5L8.5,202" class="hashSvgLine" />
        </g>
        <g transform="matrix(-1,-1.22465e-16,1.22465e-16,-1,67,202)">
            <path d="M-33,159.5L9.5,202" class="hashSvgLine" />
        </g>
        <g transform="matrix(-1,-1.22465e-16,1.22465e-16,-1,63,202)">
            <path d="M-37,154.5L10.5,202" class="hashSvgLine" />
        </g>
        <g transform="matrix(-1,-1.22465e-16,1.22465e-16,-1,59,202)">
            <path d="M-41,149.5L11.5,202" class="hashSvgLine" />
        </g>
        <g transform="matrix(-1,-1.22465e-16,1.22465e-16,-1,55,202)">
            <path d="M-45,144.5L12.5,202" class="hashSvgLine" />
        </g>
        <g transform="matrix(-1,-1.22465e-16,1.22465e-16,-1,51,202)">
            <path d="M-49,139.5L13.5,202" class="hashSvgLine" />
        </g>
        <g transform="matrix(-1,-1.22465e-16,1.22465e-16,-1,47,202)">
            <path d="M-53,134.5L14.5,202" class="hashSvgLine" />
        </g>
        <g transform="matrix(-1,-1.22465e-16,1.22465e-16,-1,43,202)">
            <path d="M-57,129.5L15.5,202" class="hashSvgLine" />
        </g>
        <g transform="matrix(-1,-1.22465e-16,1.22465e-16,-1,39,202)">
            <path d="M-61,124.5L16.5,202" class="hashSvgLine" />
        </g>
        <g transform="matrix(-1,-1.22465e-16,1.22465e-16,-1,35,202)">
            <path d="M-65,119.5L17.5,202" class="hashSvgLine" />
        </g>
        <g transform="matrix(-1,-1.22465e-16,1.22465e-16,-1,31,202)">
            <path d="M-69,114.5L18.5,202" class="hashSvgLine" />
        </g>
        <g transform="matrix(-1,-1.22465e-16,1.22465e-16,-1,27,202)">
            <path d="M-73,109.5L19.5,202" class="hashSvgLine" />
        </g>
        <g transform="matrix(-1,-1.22465e-16,1.22465e-16,-1,23,202)">
            <path d="M-77,104.5L20.5,202" class="hashSvgLine" />
        </g>
    </g>
    <g id="direction1">
        <g transform="matrix(1,0,0,1,0,-100)">
            <path d="M0,197.5L2.5,200" class="hashSvgLine" />
        </g>
        <g transform="matrix(1,0,0,1,5,-102)">
            <path d="M-5,194.5L2.5,202" class="hashSvgLine" />
        </g>
        <g transform="matrix(1,0,0,1,9,-102)">
            <path d="M-9,189.5L3.5,202" class="hashSvgLine" />
        </g>
        <g transform="matrix(1,0,0,1,13,-102)">
            <path d="M-13,184.5L4.5,202" class="hashSvgLine" />
        </g>
        <g transform="matrix(1,0,0,1,17,-102)">
            <path d="M-17,179.5L5.5,202" class="hashSvgLine" />
        </g>
        <g transform="matrix(1,0,0,1,21,-102)">
            <path d="M-21,174.5L6.5,202" class="hashSvgLine" />
        </g>
        <g transform="matrix(1,0,0,1,25,-102)">
            <path d="M-25,169.5L7.5,202" class="hashSvgLine" />
        </g>
        <g transform="matrix(1,0,0,1,29,-102)">
            <path d="M-29,164.5L8.5,202" class="hashSvgLine" />
        </g>
        <g transform="matrix(1,0,0,1,33,-102)">
            <path d="M-33,159.5L9.5,202" class="hashSvgLine" />
        </g>
        <g transform="matrix(1,0,0,1,37,-102)">
            <path d="M-37,154.5L10.5,202" class="hashSvgLine" />
        </g>
        <g transform="matrix(1,0,0,1,41,-102)">
            <path d="M-41,149.5L11.5,202" class="hashSvgLine" />
        </g>
        <g transform="matrix(1,0,0,1,45,-102)">
            <path d="M-45,144.5L12.5,202" class="hashSvgLine" />
        </g>
        <g transform="matrix(1,0,0,1,49,-102)">
            <path d="M-49,139.5L13.5,202" class="hashSvgLine" />
        </g>
        <g transform="matrix(1,0,0,1,53,-102)">
            <path d="M-53,134.5L14.5,202" class="hashSvgLine" />
        </g>
        <g transform="matrix(1,0,0,1,57,-102)">
            <path d="M-57,129.5L15.5,202" class="hashSvgLine" />
        </g>
        <g transform="matrix(1,0,0,1,61,-102)">
            <path d="M-61,124.5L16.5,202" class="hashSvgLine" />
        </g>
        <g transform="matrix(1,0,0,1,65,-102)">
            <path d="M-65,119.5L17.5,202" class="hashSvgLine" />
        </g>
        <g transform="matrix(1,0,0,1,69,-102)">
            <path d="M-69,114.5L18.5,202" class="hashSvgLine" />
        </g>
        <g transform="matrix(1,0,0,1,73,-102)">
            <path d="M-73,109.5L19.5,202" class="hashSvgLine" />
        </g>
        <g transform="matrix(1,0,0,1,77,-102)">
            <path d="M-77,104.5L20.5,202" class="hashSvgLine" />
        </g>
        <g transform="matrix(-1,-1.22465e-16,1.22465e-16,-1,100,200)">
            <path d="M0,197.5L2.5,200" class="hashSvgLine" />
        </g>
        <g transform="matrix(-1,-1.22465e-16,1.22465e-16,-1,95,202)">
            <path d="M-5,194.5L2.5,202" class="hashSvgLine" />
        </g>
        <g transform="matrix(-1,-1.22465e-16,1.22465e-16,-1,91,202)">
            <path d="M-9,189.5L3.5,202" class="hashSvgLine" />
        </g>
        <g transform="matrix(-1,-1.22465e-16,1.22465e-16,-1,87,202)">
            <path d="M-13,184.5L4.5,202" class="hashSvgLine" />
        </g>
        <g transform="matrix(-1,-1.22465e-16,1.22465e-16,-1,83,202)">
            <path d="M-17,179.5L5.5,202" class="hashSvgLine" />
        </g>
        <g transform="matrix(-1,-1.22465e-16,1.22465e-16,-1,79,202)">
            <path d="M-21,174.5L6.5,202" class="hashSvgLine" />
        </g>
        <g transform="matrix(-1,-1.22465e-16,1.22465e-16,-1,75,202)">
            <path d="M-25,169.5L7.5,202" class="hashSvgLine" />
        </g>
        <g transform="matrix(-1,-1.22465e-16,1.22465e-16,-1,71,202)">
            <path d="M-29,164.5L8.5,202" class="hashSvgLine" />
        </g>
        <g transform="matrix(-1,-1.22465e-16,1.22465e-16,-1,67,202)">
            <path d="M-33,159.5L9.5,202" class="hashSvgLine" />
        </g>
        <g transform="matrix(-1,-1.22465e-16,1.22465e-16,-1,63,202)">
            <path d="M-37,154.5L10.5,202" class="hashSvgLine" />
        </g>
        <g transform="matrix(-1,-1.22465e-16,1.22465e-16,-1,59,202)">
            <path d="M-41,149.5L11.5,202" class="hashSvgLine" />
        </g>
        <g transform="matrix(-1,-1.22465e-16,1.22465e-16,-1,55,202)">
            <path d="M-45,144.5L12.5,202" class="hashSvgLine" />
        </g>
        <g transform="matrix(-1,-1.22465e-16,1.22465e-16,-1,51,202)">
            <path d="M-49,139.5L13.5,202" class="hashSvgLine" />
        </g>
        <g transform="matrix(-1,-1.22465e-16,1.22465e-16,-1,47,202)">
            <path d="M-53,134.5L14.5,202" class="hashSvgLine" />
        </g>
        <g transform="matrix(-1,-1.22465e-16,1.22465e-16,-1,43,202)">
            <path d="M-57,129.5L15.5,202" class="hashSvgLine" />
        </g>
        <g transform="matrix(-1,-1.22465e-16,1.22465e-16,-1,39,202)">
            <path d="M-61,124.5L16.5,202" class="hashSvgLine" />
        </g>
        <g transform="matrix(-1,-1.22465e-16,1.22465e-16,-1,35,202)">
            <path d="M-65,119.5L17.5,202" class="hashSvgLine" />
        </g>
        <g transform="matrix(-1,-1.22465e-16,1.22465e-16,-1,31,202)">
            <path d="M-69,114.5L18.5,202" class="hashSvgLine" />
        </g>
        <g transform="matrix(-1,-1.22465e-16,1.22465e-16,-1,27,202)">
            <path d="M-73,109.5L19.5,202" class="hashSvgLine" />
        </g>
        <g transform="matrix(-1,-1.22465e-16,1.22465e-16,-1,23,202)">
            <path d="M-77,104.5L20.5,202" class="hashSvgLine" />
        </g>
    </g>
</svg>
